<?xml version="1.0" standalone="no"?><!DOCTYPE svg PUBLIC "-//W3C//DTD SVG 1.1//EN"
        "http://www.w3.org/Graphics/SVG/1.1/DTD/svg11.dtd">
<svg  class="icon" viewBox="0 0 1024 1024" version="1.1" xmlns="http://www.w3.org/2000/svg" p-id="0"
     width="64" height="64"  >
    <path d="M641.774 783.11L382.209 783.11c-26.078 0-47.1785-21.1016-47.1785-47.1785l23.5877-330.373c0-26.078 21.1016-47.1785 47.1795-47.1785L618.183 358.38c26.077 0 47.2205 21.1006 47.2205 47.1785l23.5877 330.373c0 26.077-21.1415 47.1784-47.2184 47.1785Zm-35.3631-471.951L417.61299999 311.159c-19.5678 0-35.4043-15.8357-35.40429999-35.4043L382.208 252.166c0-19.52679999 15.8357-35.40540001 35.4043-35.4054l188.798 0c19.52679999 0 35.3634 15.8796 35.3634 35.4054l0 23.5894c-0.00106066 19.5677-15.8377 35.4034-35.3644 35.4033Zm-11.8155-141.57700001L429.386 169.582c-13.0165 0-23.5882-10.5708-23.5882-23.5882l0-23.6322c0-13.0165 10.5718-23.58820001 23.5882-23.5882l165.208 0c13.0185 0 23.58820001 10.5718 23.5882 23.5882l0 23.63219999c0.00101823 13.0185-10.5697 23.5882-23.5872 23.58820001ZM571.00600001 51.596L453.018 51.596c-13.0594 0-23.6312-10.5728-23.6312-23.5903 0-13.05739999 10.5718-23.62919999 23.6312-23.6292l117.988 0c13.0165 0 23.58820001 10.5718 23.5882 23.6292 0.0010253 13.0165-10.5708 23.5903-23.58819999 23.5903Zm284.687 626.294L537.508 1008.759c-6.92267 7.21328-15.5041 10.8614-25.4967 10.8614-10.03150001 0-18.572-3.64811-25.5366-10.8614L168.29 677.89c-10.0744-10.4868-12.7299-25.0393-7.04851-38.4303 5.68037-13.349 18.0337-21.515 32.5851-21.51499999l636.372-1e-8c14.5504 0 26.8628 8.16701 32.5442 21.515 5.72027 13.39 3.02493001 27.9434-7.04957 38.4303Z"
           fill="#333333"></path>
</svg>